<?xml version="1.0" encoding="UTF-8"?> <svg xmlns="http://www.w3.org/2000/svg" viewBox="0 0 780.91 258.46"><defs><style>.cls-1{fill:#fff;}</style></defs><g id="Capa_2" data-name="Capa 2"><g id="contenido"><path class="cls-1" d="M62.67,202.2H74.83v46.29h28l-1.39,10H62.67Z"></path><path class="cls-1" d="M212.74,245.46l-4.39,13h-12l19.1-56.26h15.28l19.93,56.26H237.91l-4.62-13Zm17.93-10c-4-11.87-6.54-19.46-7.9-24.51h-.08c-1.39,5.54-4.2,14.37-7.4,24.51Z"></path><path class="cls-1" d="M361.89,202.2h24.58c13.59,0,18.75,7.09,18.75,14.39,0,6.35-3.36,10.46-7.16,12.2a13.42,13.42,0,0,1,8.77,12.83c0,9.63-7.56,16.84-19.53,16.84H361.89Zm23.18,22.19c5.78,0,8.17-2.59,8.17-6.55,0-4.12-3.12-6.25-7.82-6.25H373.83v12.8Zm-11.24,24.67h11c6.58,0,9.56-2.75,9.56-7.85,0-4.53-2.93-7.42-9.62-7.42H373.83Z"></path><polygon class="cls-1" points="0 7.68 33.79 78.48 38.98 89.41 66.26 148.46 66.26 7.68 0 7.68"></polygon><polygon class="cls-1" points="143.45 7.68 109.67 78.48 104.47 89.41 77.19 148.46 77.19 7.68 143.45 7.68"></polygon><path class="cls-1" d="M255,73.34l-26.9,89.44q31.08-.5,52.32-12.74V73.34Z"></path><path class="cls-1" d="M230.54,5.11Q192,5.11,168.82,27.8T145.64,86.41q0,35.75,21.21,56.14,18.85,18,49.86,20.07L263,8.72A136.6,136.6,0,0,0,230.54,5.11Z"></path><path class="cls-1" d="M397.28,5.11q-36.07,0-58.66,22.75C325.39,41.2,318,58,316.37,78.48H435V10.75C424.73,7,412.21,5.11,397.28,5.11Z"></path><path class="cls-1" d="M316.05,89.41c.38,21.93,7.1,39.48,20.06,52.81C349.5,156,367.93,164.6,391.33,164.6A98.78,98.78,0,0,0,435,154.74V89.41Z"></path><path class="cls-1" d="M506.16,2.26,492.55,41.79H482.46L469,2.26h9.6l8.24,27.51a19.65,19.65,0,0,1,.8,3.94h.16a22.53,22.53,0,0,1,.86-4.05l8.19-27.4Z"></path><path class="cls-1" d="M514.35,9.1a5.1,5.1,0,0,1-3.61-1.31,4.23,4.23,0,0,1-1.41-3.21,4.07,4.07,0,0,1,1.41-3.2,5.89,5.89,0,0,1,7.23,0,4.08,4.08,0,0,1,1.39,3.2A4.18,4.18,0,0,1,518,7.83,5.17,5.17,0,0,1,514.35,9.1Zm4.3,32.69h-8.71V13.56h8.71Z"></path><path class="cls-1" d="M539.32,42.48q-7.05,0-11.09-4t-4-10.73q0-7,4.19-11t11.33-4q7,0,11,4a14,14,0,0,1,4,10.46q0,7-4.12,11.11T539.32,42.48Zm.22-22.94a5.81,5.81,0,0,0-4.8,2.13,9.41,9.41,0,0,0-1.7,6q0,8.13,6.56,8.13,6.25,0,6.25-8.35Q545.85,19.54,539.54,19.54Z"></path><path class="cls-1" d="M569,41.79h-8.71V0H569Z"></path><path class="cls-1" d="M601.56,30.16H583.15q.44,6.15,7.74,6.14a15.16,15.16,0,0,0,8.19-2.2v6.28a21.48,21.48,0,0,1-10.18,2.1q-6.82,0-10.61-3.79t-3.77-10.57q0-7,4.08-11.14a13.56,13.56,0,0,1,10-4.11q6.18,0,9.55,3.67t3.38,10Zm-8.08-5.35c0-4-1.63-6.06-4.91-6.06A4.67,4.67,0,0,0,585,20.48a7.88,7.88,0,0,0-1.86,4.33Z"></path><path class="cls-1" d="M633.89,41.79h-8.68V26.11c0-4.38-1.57-6.57-4.69-6.57a4.65,4.65,0,0,0-3.72,1.74,6.64,6.64,0,0,0-1.46,4.41v16.1h-8.71V13.56h8.71V18h.11a10,10,0,0,1,9.07-5.16q9.36,0,9.37,11.64Z"></path><path class="cls-1" d="M662.06,40.77q-3,1.71-8.52,1.71A14.39,14.39,0,0,1,643,38.54a13.63,13.63,0,0,1-4-10.17q0-7.2,4.31-11.35t11.54-4.15c3.32,0,5.73.45,7.22,1.33v7.38a10,10,0,0,0-6.09-2,8,8,0,0,0-5.94,2.2,8.17,8.17,0,0,0-2.19,6.05,8,8,0,0,0,2.09,5.88,7.69,7.69,0,0,0,5.76,2.14,11.51,11.51,0,0,0,6.37-2Z"></path><path class="cls-1" d="M672.06,9.1a5.1,5.1,0,0,1-3.61-1.31,4.22,4.22,0,0,1-1.4-3.21,4.06,4.06,0,0,1,1.4-3.2,5.9,5.9,0,0,1,7.24,0,4.08,4.08,0,0,1,1.39,3.2,4.18,4.18,0,0,1-1.39,3.25A5.21,5.21,0,0,1,672.06,9.1Zm4.3,32.69h-8.71V13.56h8.71Z"></path><path class="cls-1" d="M707.07,41.79h-8.24v-4h-.11a9.21,9.21,0,0,1-8.41,4.74,8.79,8.79,0,0,1-6.46-2.33,8.31,8.31,0,0,1-2.36-6.22q0-8.2,9.73-9.48l7.66-1q0-4.63-5-4.63a17.1,17.1,0,0,0-9.6,3V15.24a21.84,21.84,0,0,1,5-1.65,26,26,0,0,1,5.75-.72q12.07,0,12.07,12.05Zm-8.19-11.47v-1.9l-5.12.66q-4.25.55-4.25,3.84a3.14,3.14,0,0,0,1,2.43,4,4,0,0,0,2.8.95,5.15,5.15,0,0,0,4-1.69A6.12,6.12,0,0,0,698.88,30.32Z"></path><path class="cls-1" d="M712,41.05V34a18.44,18.44,0,0,0,4.29,1.93,14.27,14.27,0,0,0,4,.63,8.71,8.71,0,0,0,3.65-.63A2.05,2.05,0,0,0,725.32,34a1.81,1.81,0,0,0-.61-1.38,5.32,5.32,0,0,0-1.56-1,16.21,16.21,0,0,0-2.08-.75c-.75-.22-1.48-.47-2.17-.74a20.74,20.74,0,0,1-3-1.37,8.57,8.57,0,0,1-2.15-1.69,6.64,6.64,0,0,1-1.32-2.24,8.68,8.68,0,0,1-.46-3,7.73,7.73,0,0,1,1-4.08,8.36,8.36,0,0,1,2.75-2.8,12.74,12.74,0,0,1,3.94-1.6,20.57,20.57,0,0,1,4.62-.51,26.14,26.14,0,0,1,3.81.29A31.06,31.06,0,0,1,732,14v6.73a13.74,13.74,0,0,0-3.54-1.45,15.06,15.06,0,0,0-3.71-.48,8.23,8.23,0,0,0-1.61.15,5.41,5.41,0,0,0-1.34.44,2.52,2.52,0,0,0-.91.75,1.71,1.71,0,0,0-.33,1,1.93,1.93,0,0,0,.5,1.33,4.5,4.5,0,0,0,1.29.95,14,14,0,0,0,1.78.71l1.94.65a24.48,24.48,0,0,1,3.15,1.32,10.06,10.06,0,0,1,2.41,1.69,6.54,6.54,0,0,1,1.54,2.26,8,8,0,0,1,.54,3.08,8,8,0,0,1-1.09,4.29,8.68,8.68,0,0,1-2.89,2.89A13.11,13.11,0,0,1,725.52,42a23,23,0,0,1-4.89.51A25.37,25.37,0,0,1,712,41.05Z"></path><path class="cls-1" d="M780.91,13.56,769.45,44.05q-4.14,11-12.46,11a16,16,0,0,1-5.22-.72V47.39a7.34,7.34,0,0,0,3.78,1,4.73,4.73,0,0,0,4.69-3.17l1.49-3.5L750.26,13.56h9.65l5.26,17.18a21.87,21.87,0,0,1,.77,3.77h.11a27.52,27.52,0,0,1,.91-3.72l5.32-17.23Z"></path><path class="cls-1" d="M505.69,106.89q-5.78,3.33-14.38,3.34-9.54,0-15-5.28t-5.5-14.55q0-9.32,6-15.18t16-5.87a32.43,32.43,0,0,1,11.08,1.73v8.35a22.06,22.06,0,0,0-11.19-2.64,12,12,0,0,0-9,3.59A13.24,13.24,0,0,0,480.14,90q0,6.09,3.13,9.43a11,11,0,0,0,8.45,3.33,11.7,11.7,0,0,0,5.07-.91V94.12h-7.91V87h16.81Z"></path><path class="cls-1" d="M537.89,97.9H519.48q.43,6.15,7.74,6.15a15.12,15.12,0,0,0,8.19-2.21v6.29a21.46,21.46,0,0,1-10.17,2.1q-6.84,0-10.61-3.8t-3.78-10.57q0-7,4.08-11.14a13.61,13.61,0,0,1,10-4.1q6.18,0,9.55,3.66t3.38,10Zm-8.07-5.35q0-6.06-4.91-6.06a4.69,4.69,0,0,0-3.63,1.74,7.85,7.85,0,0,0-1.86,4.32Z"></path><path class="cls-1" d="M541.23,108.79v-7.06a18.15,18.15,0,0,0,4.28,1.93,14,14,0,0,0,4,.64,8.5,8.5,0,0,0,3.65-.64,2,2,0,0,0,1.34-1.93,1.74,1.74,0,0,0-.61-1.37,5.64,5.64,0,0,0-1.55-1,18.79,18.79,0,0,0-2.09-.74c-.75-.22-1.47-.47-2.17-.75a20.68,20.68,0,0,1-3-1.36,8.59,8.59,0,0,1-2.15-1.7,6.5,6.5,0,0,1-1.32-2.23,9,9,0,0,1-.45-3,7.75,7.75,0,0,1,1-4.08A8.46,8.46,0,0,1,545,82.73a12.5,12.5,0,0,1,3.94-1.6,20.57,20.57,0,0,1,4.62-.51,24.78,24.78,0,0,1,3.8.29,27.88,27.88,0,0,1,3.81.84v6.72A13.93,13.93,0,0,0,557.64,87a15,15,0,0,0-3.71-.49,8.29,8.29,0,0,0-1.61.16,5.14,5.14,0,0,0-1.34.44,2.38,2.38,0,0,0-.9.74,1.68,1.68,0,0,0-.34,1,1.92,1.92,0,0,0,.5,1.32,4.25,4.25,0,0,0,1.3,1,12.08,12.08,0,0,0,1.77.72l2,.64a26.48,26.48,0,0,1,3.14,1.33,9.84,9.84,0,0,1,2.41,1.68,6.66,6.66,0,0,1,1.55,2.26,8.18,8.18,0,0,1,.53,3.09,8.07,8.07,0,0,1-1.08,4.28,8.83,8.83,0,0,1-2.9,2.9,13.44,13.44,0,0,1-4.16,1.63,23.74,23.74,0,0,1-4.9.51A25.07,25.07,0,0,1,541.23,108.79Z"></path><path class="cls-1" d="M585,109.21a13,13,0,0,1-5.81,1q-9.21,0-9.21-9.57V87.73h-4.57V81.31H570V75.22l8.68-2.48v8.57H585v6.42h-6.34V99.14q0,4.41,3.51,4.41a5.78,5.78,0,0,0,2.83-.8Z"></path><path class="cls-1" d="M594.29,76.84a5.06,5.06,0,0,1-3.61-1.31,4.2,4.2,0,0,1-1.41-3.21,4.08,4.08,0,0,1,1.41-3.2,5.9,5.9,0,0,1,7.24,0,4.13,4.13,0,0,1,1.39,3.2,4.24,4.24,0,0,1-1.39,3.26A5.21,5.21,0,0,1,594.29,76.84Zm4.3,32.7h-8.71V81.31h8.71Z"></path><path class="cls-1" d="M619.37,110.23q-7.05,0-11.09-4t-4-10.74q0-7,4.2-11t11.32-3.95q7,0,11,3.95a14.1,14.1,0,0,1,4,10.47q0,7-4.13,11.11C627.92,108.86,624.15,110.23,619.37,110.23Zm.23-22.94a5.83,5.83,0,0,0-4.8,2.12,9.37,9.37,0,0,0-1.71,6q0,8.13,6.56,8.13,6.26,0,6.26-8.35Q625.91,87.3,619.6,87.29Zm9.34-19.35-8.63,8.9H614l7.17-8.9Z"></path><path class="cls-1" d="M667.67,109.54H659V93.85c0-4.37-1.57-6.56-4.69-6.56A4.65,4.65,0,0,0,650.58,89a6.61,6.61,0,0,0-1.46,4.41v16.1h-8.71V81.31h8.71v4.46h.11a10,10,0,0,1,9.07-5.15q9.38,0,9.37,11.63Z"></path><path class="cls-1" d="M717.76,109.54h-8.71v-3.89h-.11a9.78,9.78,0,0,1-8.74,4.58,10.71,10.71,0,0,1-8.52-3.74q-3.23-3.73-3.22-10.43,0-7,3.55-11.22a11.58,11.58,0,0,1,9.32-4.22q5.46,0,7.61,3.91h.11V67.75h8.71Zm-8.55-13.73V93.68a6.65,6.65,0,0,0-1.6-4.57,5.65,5.65,0,0,0-8.68.45,10.61,10.61,0,0,0-1.62,6.25,9.11,9.11,0,0,0,1.57,5.73,5.58,5.58,0,0,0,8.67-.11A8.84,8.84,0,0,0,709.21,95.81Z"></path><path class="cls-1" d="M750.45,97.9H732c.29,4.1,2.88,6.15,7.74,6.15a15.12,15.12,0,0,0,8.19-2.21v6.29a21.46,21.46,0,0,1-10.17,2.1q-6.84,0-10.61-3.8t-3.78-10.57q0-7,4.08-11.14a13.61,13.61,0,0,1,10-4.1q6.18,0,9.55,3.66t3.38,10Zm-8.08-5.35q0-6.06-4.9-6.06a4.69,4.69,0,0,0-3.63,1.74A7.85,7.85,0,0,0,732,92.55Z"></path><path class="cls-1" d="M501.59,175.88a26.2,26.2,0,0,1-11.3,2.09q-9.1,0-14.31-5.35t-5.21-14.25q0-9.48,5.86-15.38t15.2-5.9a28.55,28.55,0,0,1,9.76,1.46v8.58a17.21,17.21,0,0,0-9-2.38,12,12,0,0,0-9,3.5q-3.42,3.51-3.42,9.49,0,5.73,3.23,9.14a11.38,11.38,0,0,0,8.68,3.4,18.46,18.46,0,0,0,9.54-2.54Z"></path><path class="cls-1" d="M521.08,178Q514,178,510,174t-4-10.74q0-7,4.19-11t11.33-3.95q7,0,11,3.95a14.08,14.08,0,0,1,4,10.46q0,7-4.12,11.11T521.08,178ZM521.3,155a5.8,5.8,0,0,0-4.8,2.12,9.35,9.35,0,0,0-1.71,6q0,8.13,6.56,8.13,6.25,0,6.26-8.35Q527.61,155,521.3,155Z"></path><path class="cls-1" d="M569.4,177.28h-8.68V161.6c0-4.38-1.57-6.56-4.69-6.56a4.62,4.62,0,0,0-3.72,1.73,6.59,6.59,0,0,0-1.46,4.41v16.1h-8.71V149.05h8.71v4.47H551a10,10,0,0,1,9.07-5.15q9.38,0,9.37,11.63Z"></path><path class="cls-1" d="M594.71,142.16a8.87,8.87,0,0,0-3.23-.66q-4.18,0-4.19,4.55v3h6.45v6.43h-6.45v21.8h-8.68v-21.8h-4.74v-6.43h4.74v-3.5a10.15,10.15,0,0,1,3.14-7.77q3.13-3,8.54-2.95a15,15,0,0,1,4.42.55Z"></path><path class="cls-1" d="M606.92,177.28H598.2V135.49h8.72Z"></path><path class="cls-1" d="M618.66,144.59a5.1,5.1,0,0,1-3.61-1.31,4.2,4.2,0,0,1-1.41-3.21,4.07,4.07,0,0,1,1.41-3.2,5.89,5.89,0,0,1,7.23,0,4.09,4.09,0,0,1,1.4,3.2,4.19,4.19,0,0,1-1.4,3.25A5.14,5.14,0,0,1,618.66,144.59Zm4.3,32.69h-8.71V149.05H623Z"></path><path class="cls-1" d="M651.68,176.26q-2.94,1.71-8.52,1.71A14.42,14.42,0,0,1,632.63,174a13.63,13.63,0,0,1-4-10.17q0-7.2,4.31-11.35t11.54-4.14c3.33,0,5.73.44,7.22,1.32v7.39a9.93,9.93,0,0,0-6.09-2,8,8,0,0,0-5.94,2.19,8.17,8.17,0,0,0-2.19,6.05,8,8,0,0,0,2.09,5.88,7.69,7.69,0,0,0,5.76,2.14,11.48,11.48,0,0,0,6.37-2Z"></path><path class="cls-1" d="M674.45,177a12.83,12.83,0,0,1-5.81,1q-9.21,0-9.21-9.56V155.48h-4.58v-6.43h4.58V143l8.68-2.48v8.57h6.34v6.43h-6.34v11.41q0,4.41,3.5,4.41a5.92,5.92,0,0,0,2.84-.8Z"></path><path class="cls-1" d="M692.59,178c-4.71,0-8.4-1.32-11.1-3.95s-4-6.22-4-10.74,1.39-8.32,4.19-11,6.57-3.95,11.33-3.95,8.36,1.31,11,3.95a14,14,0,0,1,4,10.46q0,7-4.12,11.11T692.59,178Zm.22-22.93a5.78,5.78,0,0,0-4.79,2.12,9.29,9.29,0,0,0-1.71,6q0,8.13,6.56,8.13,6.25,0,6.25-8.35Q699.12,155,692.81,155Z"></path><path class="cls-1" d="M711.81,176.54v-7.06a18.57,18.57,0,0,0,4.28,1.93,14.27,14.27,0,0,0,4,.63,8.67,8.67,0,0,0,3.65-.63,2.05,2.05,0,0,0,1.34-1.93,1.78,1.78,0,0,0-.61-1.38,5.4,5.4,0,0,0-1.55-1,16.94,16.94,0,0,0-2.09-.75c-.75-.22-1.47-.47-2.17-.74a20.66,20.66,0,0,1-3-1.37,8.57,8.57,0,0,1-2.15-1.69,6.69,6.69,0,0,1-1.32-2.23,9,9,0,0,1-.45-3,7.73,7.73,0,0,1,1-4.08,8.49,8.49,0,0,1,2.76-2.8,12.39,12.39,0,0,1,3.94-1.59,20,20,0,0,1,4.62-.51,24.78,24.78,0,0,1,3.8.29,29.42,29.42,0,0,1,3.81.83v6.73a14,14,0,0,0-3.55-1.45,15,15,0,0,0-3.71-.48,8.3,8.3,0,0,0-1.61.15,5.55,5.55,0,0,0-1.34.44,2.4,2.4,0,0,0-.9.75,1.66,1.66,0,0,0-.34,1,1.93,1.93,0,0,0,.5,1.33,4.42,4.42,0,0,0,1.3.95,13.31,13.31,0,0,0,1.77.71l2,.65a26.5,26.5,0,0,1,3.14,1.32,9.86,9.86,0,0,1,2.41,1.69,6.4,6.4,0,0,1,1.54,2.26,9,9,0,0,1-.55,7.37,8.68,8.68,0,0,1-2.89,2.89,13,13,0,0,1-4.16,1.63,23.07,23.07,0,0,1-4.9.51A25.31,25.31,0,0,1,711.81,176.54Z"></path></g></g></svg> 